<?xml version="1.0" encoding="UTF-8"?>
<svg width="531px" height="229px" viewBox="0 0 531 229" version="1.1" xmlns="http://www.w3.org/2000/svg" xmlns:xlink="http://www.w3.org/1999/xlink">
    <!-- Generator: Sketch 60.1 (88133) - https://sketch.com -->
    <title>Group</title>
    <desc>Created with Sketch.</desc>
    <g id="Page-1" stroke="none" stroke-width="1" fill="none" fill-rule="evenodd">
        <g id="Artboard" transform="translate(-73.000000, -114.000000)">
            <g id="Group" transform="translate(73.000000, 114.000000)">
                <path d="M11,154 C48.6512764,155.428571 89.7064442,161.495657 134.165504,172.201257 C76.5784524,168.079096 45.6452232,167.097107 41.365816,169.255288 C32.5584187,167.097107 22.43648,162.012011 11,154 Z" id="inside-mouth" fill="#BF7474"></path>
                <polygon id="tooth" fill="#FFFFFF" transform="translate(17.193669, 158.550314) rotate(2.000000) translate(-17.193669, -158.550314) " points="13 154 17.8727051 163.100629 21.3873373 154"></polygon>
                <polygon id="tooth" fill="#FFFFFF" transform="translate(30.193669, 159.550314) rotate(5.000000) translate(-30.193669, -159.550314) " points="26 155 30.8727051 164.100629 34.3873373 155"></polygon>
                <polygon id="tooth" fill="#FFFFFF" transform="translate(43.193669, 159.550314) rotate(5.000000) translate(-43.193669, -159.550314) " points="39 155 43.8727051 164.100629 47.3873373 155"></polygon>
                <polygon id="tooth" fill="#FFFFFF" transform="translate(54.193669, 160.550314) rotate(5.000000) translate(-54.193669, -160.550314) " points="50 156 54.8727051 165.100629 58.3873373 156"></polygon>
                <polygon id="tooth" fill="#FFFFFF" transform="translate(65.193669, 162.550314) rotate(5.000000) translate(-65.193669, -162.550314) " points="61 158 65.8727051 167.100629 69.3873373 158"></polygon>
                <polygon id="tooth" fill="#FFFFFF" transform="translate(76.193669, 162.550314) rotate(5.000000) translate(-76.193669, -162.550314) " points="72 158 76.8727051 167.100629 80.3873373 158"></polygon>
                <polygon id="tooth" fill="#FFFFFF" transform="translate(86.193669, 164.550314) rotate(5.000000) translate(-86.193669, -164.550314) " points="82 160 86.8727051 169.100629 90.3873373 160"></polygon>
                <path d="M1.70530257e-13,136.018016 C123.935536,146.392021 194.114012,156.392021 210.535427,166.018016 C271.284793,201.62841 461.744298,151.579024 459.776359,152.460167 C394.921815,181.498733 323.829696,196.018016 246.5,196.018016 C160.993562,196.018016 85.6556878,185.420823 41.444486,169.327804 L41.4893815,169.321678 L41.4893815,169.321678 L41.9506255,169.255288 C46.2300327,167.097107 77.1632618,168.079096 134.750313,172.201257 C90.2912537,161.495657 49.2360858,155.428571 11.5848094,154 C11.6726212,154.149228 11.7608839,154.297391 11.8495976,154.444487 C4.15336188,148.638749 1.70530257e-13,142.446444 1.70530257e-13,136.018016 Z" id="lower-body" fill="#E8F1FF"></path>
                <path d="M224.955867,-7.10542736e-14 C236.673313,-7.10542736e-14 260.024364,64.0657776 272.342103,71.884215 C284.659841,79.7026523 322.828462,79.7026523 358.618279,87.0719254 C366.803257,88.7572466 378.874654,59.8130607 386.894051,61.8838077 C395.756396,64.1722185 392.803887,88.2377613 400.663839,95.8220914 L400.905353,96.0468354 L461.117543,120.17885 C468.318177,123.42948 491.616081,103.997799 531.011254,61.8838077 C515.3185,107.306613 507.472123,134.528308 507.472123,143.548893 C507.472123,154.074893 511.351203,175.938586 519.109361,209.139972 C482.726771,170.487815 462.978854,151.584002 459.865608,152.42853 L459.776359,152.460167 C461.092331,151.870942 376.361083,174.056173 301.909196,178.172202 C300.013265,191.054769 303.692623,204.486269 312.947144,218.464785 C328.674937,242.220873 294.7852,224.87768 211.277933,166.435207 L211.266243,166.43876 C211.020601,166.299861 210.776989,166.159615 210.535427,166.018016 C194.114012,156.392021 123.935536,146.392021 2.84217094e-14,136.018016 L0.042785217,135.201256 C2.8577007,108.153479 143.68797,71.884215 160.587049,71.884215 C177.656825,71.884215 213.238422,-7.10542736e-14 224.955867,-7.10542736e-14 Z" id="upper-body" fill="#A5BEE7"></path>
                <ellipse id="eye" fill="#000000" cx="89.5" cy="122.018016" rx="13.5" ry="8"></ellipse>
                <ellipse id="eye-sparkle" fill="#FFFFFF" cx="85" cy="119.518016" rx="4" ry="2.5"></ellipse>
            </g>
        </g>
    </g>
</svg>