<svg xmlns="http://www.w3.org/2000/svg" viewBox="0 -0.5 296 195" shape-rendering="crispEdges">
<metadata>Made with Pixels to Svg https://codepen.io/shshaw/pen/XbxvNj</metadata>
<path stroke="#7a96a9" d="M0 0h225M258 0h38M0 1h224M257 1h39M0 2h223M257 2h39M0 3h222M256 3h40M0 4h221M255 4h41M0 5h220M255 5h41M0 6h218M254 6h42M0 7h217M253 7h43M0 8h216M252 8h44M0 9h215M252 9h44M0 10h214M251 10h45M0 11h213M250 11h46M0 12h212M250 12h46M0 13h211M249 13h47M0 14h210M248 14h48M0 15h209M247 15h49M0 16h208M247 16h49M0 17h207M246 17h50M0 18h206M245 18h51M0 19h205M244 19h52M0 20h204M243 20h53M0 21h202M242 21h54M0 22h201M241 22h55M0 23h200M240 23h56M0 24h199M240 24h56M0 25h198M239 25h57M0 26h196M238 26h58M0 27h195M237 27h59M0 28h194M236 28h60M0 29h56M57 29h136M235 29h61M0 30h54M57 30h135M234 30h62M0 31h53M57 31h134M233 31h63M0 32h52M57 32h133M232 32h64M0 33h51M57 33h131M231 33h65M0 34h49M56 34h131M230 34h66M0 35h48M56 35h130M229 35h67M0 36h47M56 36h129M228 36h68M0 37h45M55 37h129M227 37h69M0 38h44M55 38h128M226 38h70M0 39h43M55 39h127M225 39h71M0 40h14M17 40h24M54 40h127M224 40h72M0 41h14M17 41h23M54 41h126M223 41h73M0 42h13M17 42h22M54 42h125M222 42h74M0 43h12M17 43h21M53 43h125M221 43h75M0 44h10M17 44h20M53 44h125M220 44h76M0 45h9M17 45h18M53 45h124M219 45h77M0 46h9M17 46h16M52 46h124M218 46h78M0 47h8M17 47h15M52 47h123M217 47h79M0 48h7M17 48h13M51 48h123M216 48h80M0 49h7M17 49h11M51 49h122M215 49h81M0 50h6M17 50h9M51 50h121M214 50h82M0 51h5M17 51h7M50 51h121M213 51h83M0 52h4M17 52h5M50 52h120M212 52h84M0 53h4M18 53h2M50 53h119M211 53h85M0 54h3M49 54h119M210 54h86M0 55h2M49 55h118M209 55h87M0 56h1M48 56h117M209 56h87M0 57h1M48 57h116M208 57h88M47 58h116M207 58h89M47 59h115M205 59h91M46 60h115M204 60h92M46 61h114M203 61h93M45 62h114M201 62h95M45 63h113M200 63h96M44 64h113M198 64h98M44 65h112M197 65h99M43 66h111M196 66h100M43 67h110M194 67h102M42 68h110M193 68h103M42 69h109M191 69h105M41 70h109M189 70h107M41 71h108M188 71h108M40 72h108M186 72h110M40 73h107M185 73h111M39 74h107M182 74h114M39 75h106M181 75h115M39 76h105M180 76h116M38 77h104M179 77h117M38 78h103M178 78h118M38 79h102M178 79h118M37 80h102M177 80h119M37 81h101M177 81h119M37 82h100M177 82h119M36 83h100M177 83h119M36 84h98M177 84h119M35 85h98M176 85h120M35 86h97M176 86h75M252 86h44M34 87h97M175 87h75M252 87h44M34 88h95M175 88h73M252 88h44M33 89h95M174 89h72M252 89h44M33 90h94M174 90h70M252 90h44M33 91h93M173 91h68M252 91h44M32 92h92M173 92h66M252 92h44M32 93h14M47 93h76M172 93h65M252 93h44M31 94h13M47 94h75M172 94h63M252 94h44M31 95h11M47 95h74M171 95h63M253 95h28M286 95h10M31 96h9M47 96h72M171 96h61M285 96h11M30 97h8M47 97h71M171 97h60M285 97h11M30 98h7M47 98h70M170 98h59M284 98h12M30 99h6M47 99h69M170 99h57M283 99h13M29 100h6M46 100h68M170 100h55M283 100h13M29 101h5M46 101h67M170 101h53M282 101h14M28 102h4M46 102h66M169 102h52M281 102h15M29 103h2M45 103h66M169 103h50M281 103h15M45 104h64M168 104h49M280 104h16M44 105h64M168 105h47M279 105h17M44 106h63M168 106h45M279 106h17M43 107h62M167 107h44M278 107h18M43 108h61M167 108h42M277 108h19M43 109h60M167 109h40M277 109h19M43 110h59M167 110h38M276 110h20M42 111h58M166 111h37M276 111h20M42 112h57M166 112h36M275 112h21M42 113h56M166 113h34M274 113h22M42 114h55M165 114h34M273 114h23M41 115h55M165 115h32M273 115h23M41 116h54M165 116h31M272 116h24M41 117h53M164 117h30M272 117h24M41 118h51M164 118h29M271 118h25M40 119h51M164 119h27M271 119h25M40 120h50M164 120h25M271 120h25M39 121h50M163 121h24M270 121h26M39 122h49M163 122h22M270 122h26M38 123h49M163 123h20M269 123h27M38 124h48M163 124h18M269 124h27M37 125h47M163 125h16M270 125h26M37 126h46M163 126h14M274 126h22M37 127h45M162 127h13M277 127h19M36 128h45M162 128h12M292 128h4M36 129h43M162 129h10M295 129h1M36 130h42M162 130h8M36 131h41M162 131h6M35 132h41M163 132h2M35 133h39M35 134h38M35 135h37M34 136h37M34 137h35M239 137h1M34 138h34M238 138h3M33 139h34M238 139h3M33 140h32M236 140h5M32 141h32M235 141h6M32 142h31M233 142h8M31 143h30M232 143h9M31 144h29M231 144h10M31 145h27M230 145h11M31 146h26M110 146h1M229 146h12M31 147h24M109 147h3M228 147h13M30 148h24M108 148h4M227 148h14M30 149h23M107 149h5M226 149h15M30 150h21M106 150h6M224 150h17M30 151h20M104 151h8M223 151h18M30 152h19M103 152h9M222 152h19M30 153h18M102 153h10M220 153h21M29 154h18M102 154h10M219 154h22M29 155h17M101 155h11M218 155h23M29 156h16M100 156h12M216 156h25M29 157h14M99 157h13M215 157h26M29 158h13M98 158h14M214 158h27M29 159h12M97 159h15M212 159h29M29 160h11M96 160h16M211 160h30M29 161h10M95 161h17M210 161h31M29 162h9M94 162h18M209 162h32M29 163h8M93 163h19M207 163h34M29 164h6M92 164h20M173 164h2M206 164h35M29 165h5M90 165h22M171 165h3M205 165h35M29 166h4M88 166h24M169 166h2M172 166h1M203 166h37M30 167h1M86 167h26M167 167h5M202 167h38M85 168h27M163 168h9M201 168h39M85 169h27M159 169h12M199 169h41M83 170h29M155 170h15M198 170h41M81 171h31M151 171h19M196 171h43M79 172h33M147 172h22M195 172h44M78 173h33M142 173h26M194 173h44M77 174h91M192 174h46M76 175h91M190 175h48M74 176h93M188 176h50M72 177h94M186 177h51M71 178h95M184 178h53M71 179h94M182 179h55M70 180h95M181 180h55M69 181h95M179 181h57M68 182h96M178 182h58M68 183h95M177 183h58M67 184h96M175 184h60M66 185h97M173 185h62M65 186h98M169 186h66M64 187h170M63 188h171M62 189h172M62 190h172M61 191h172M60 192h173M59 193h173M59 194h173" />
<path stroke="#9eadb6" d="M225 0h33M224 1h33M223 2h34M222 3h34M221 4h34M220 5h35M218 6h36M217 7h36M216 8h36M215 9h37M214 10h37M213 11h37M212 12h38M211 13h38M210 14h38M209 15h38M208 16h39M207 17h39M206 18h39M205 19h39M204 20h39M202 21h40M201 22h40M200 23h40M199 24h41M198 25h41M196 26h42M195 27h42M194 28h42M56 29h1M193 29h42M54 30h3M192 30h42M53 31h4M191 31h42M52 32h5M190 32h42M51 33h6M188 33h43M49 34h7M187 34h43M48 35h8M186 35h43M47 36h9M185 36h43M45 37h10M184 37h43M44 38h11M183 38h43M43 39h12M182 39h43M14 40h3M41 40h13M181 40h43M14 41h3M40 41h14M180 41h43M13 42h4M39 42h15M179 42h43M12 43h5M38 43h15M178 43h43M10 44h7M37 44h16M178 44h42M9 45h8M35 45h18M177 45h42M9 46h8M33 46h19M176 46h42M8 47h9M32 47h20M175 47h42M7 48h10M30 48h21M174 48h42M7 49h10M28 49h23M173 49h42M6 50h11M26 50h25M172 50h42M5 51h12M24 51h26M171 51h42M4 52h13M22 52h28M170 52h42M4 53h14M20 53h30M169 53h42M3 54h46M168 54h42M2 55h47M167 55h42M1 56h47M165 56h44M1 57h47M164 57h44M0 58h47M163 58h44M0 59h47M162 59h43M0 60h46M161 60h43M0 61h46M160 61h43M0 62h45M159 62h42M0 63h45M158 63h42M0 64h44M157 64h41M0 65h44M156 65h41M0 66h43M154 66h42M0 67h43M153 67h41M0 68h42M152 68h41M0 69h42M151 69h40M0 70h41M150 70h39M0 71h41M149 71h39M0 72h40M148 72h38M0 73h40M147 73h38M0 74h39M146 74h36M0 75h39M145 75h36M0 76h39M144 76h36M0 77h38M142 77h37M0 78h38M141 78h37M0 79h38M140 79h38M0 80h37M139 80h38M0 81h37M138 81h39M0 82h37M137 82h40M0 83h36M136 83h41M0 84h36M134 84h43M0 85h35M133 85h43M0 86h35M132 86h44M251 86h1M0 87h34M131 87h44M250 87h2M0 88h34M129 88h46M248 88h4M0 89h33M128 89h46M246 89h6M0 90h33M127 90h47M244 90h8M0 91h33M126 91h47M241 91h11M0 92h32M124 92h49M239 92h13M0 93h32M46 93h1M123 93h49M237 93h15M0 94h31M44 94h3M122 94h50M235 94h17M0 95h31M42 95h5M121 95h50M234 95h19M281 95h5M0 96h31M40 96h7M119 96h52M232 96h53M0 97h30M38 97h9M118 97h53M231 97h54M0 98h30M37 98h10M117 98h53M229 98h55M0 99h30M36 99h11M116 99h54M227 99h56M0 100h29M35 100h11M114 100h56M225 100h58M0 101h29M34 101h12M113 101h57M223 101h59M0 102h28M32 102h14M112 102h57M221 102h60M0 103h29M31 103h14M111 103h58M219 103h62M0 104h45M109 104h59M217 104h63M0 105h44M108 105h60M215 105h64M0 106h44M107 106h61M213 106h66M0 107h43M105 107h62M211 107h67M0 108h43M104 108h63M209 108h68M0 109h43M103 109h64M207 109h70M0 110h43M102 110h65M205 110h71M0 111h42M100 111h66M203 111h73M0 112h42M99 112h67M202 112h73M0 113h42M98 113h68M200 113h74M0 114h42M97 114h68M199 114h74M0 115h41M96 115h69M197 115h76M0 116h41M95 116h70M196 116h76M0 117h41M94 117h70M194 117h78M0 118h41M92 118h72M193 118h78M0 119h40M91 119h73M191 119h80M0 120h40M90 120h74M189 120h82M0 121h39M89 121h74M187 121h83M0 122h39M88 122h75M185 122h85M0 123h38M87 123h76M183 123h86M0 124h38M86 124h77M181 124h88M0 125h37M84 125h79M179 125h91M0 126h37M83 126h80M177 126h97M0 127h37M82 127h80M175 127h102M0 128h36M81 128h81M174 128h118M0 129h36M79 129h83M172 129h123M0 130h36M78 130h84M170 130h126M0 131h36M77 131h85M168 131h128M0 132h35M76 132h87M165 132h131M0 133h35M74 133h222M0 134h35M73 134h223M0 135h35M72 135h224M0 136h34M71 136h225M0 137h34M69 137h170M240 137h56M0 138h34M68 138h170M241 138h55M0 139h33M67 139h171M241 139h55M0 140h33M65 140h171M241 140h55M0 141h32M64 141h171M241 141h55M0 142h32M63 142h170M241 142h55M0 143h31M61 143h171M241 143h55M0 144h31M60 144h171M241 144h55M0 145h31M58 145h172M241 145h55M0 146h31M57 146h53M111 146h118M241 146h55M0 147h31M55 147h54M112 147h116M241 147h55M0 148h30M54 148h54M112 148h115M241 148h55M0 149h30M53 149h54M112 149h114M241 149h55M0 150h30M51 150h55M112 150h112M241 150h55M0 151h30M50 151h54M112 151h111M241 151h55M0 152h30M49 152h54M112 152h110M241 152h55M0 153h30M48 153h54M112 153h108M241 153h55M0 154h29M47 154h55M112 154h107M241 154h55M0 155h29M46 155h55M112 155h106M241 155h55M0 156h29M45 156h55M112 156h104M241 156h55M0 157h29M43 157h56M112 157h103M241 157h55M0 158h29M42 158h56M112 158h102M241 158h55M0 159h29M41 159h56M112 159h100M241 159h55M0 160h29M40 160h56M112 160h99M241 160h55M0 161h29M39 161h56M112 161h98M241 161h55M0 162h29M38 162h56M112 162h97M241 162h55M0 163h29M37 163h56M112 163h95M241 163h55M0 164h29M35 164h57M112 164h61M175 164h31M241 164h55M0 165h29M34 165h56M112 165h59M174 165h31M240 165h56M0 166h29M33 166h55M112 166h57M171 166h1M173 166h30M240 166h56M0 167h30M31 167h55M112 167h55M172 167h30M240 167h56M0 168h85M112 168h51M172 168h29M240 168h56M0 169h85M112 169h47M171 169h28M240 169h56M0 170h83M112 170h43M170 170h28M239 170h57M0 171h81M112 171h39M170 171h26M239 171h57M0 172h79M112 172h35M169 172h26M239 172h57M0 173h78M111 173h31M168 173h26M238 173h58M0 174h77M168 174h24M238 174h58M0 175h76M167 175h23M238 175h58M0 176h74M167 176h21M238 176h58M0 177h72M166 177h20M237 177h59M0 178h71M166 178h18M237 178h59M0 179h71M165 179h17M237 179h59M0 180h70M165 180h16M236 180h60M0 181h69M164 181h15M236 181h60M0 182h68M164 182h14M236 182h60M0 183h68M163 183h14M235 183h61M0 184h67M163 184h12M235 184h61M0 185h66M163 185h10M235 185h61M0 186h65M163 186h6M235 186h61M0 187h64M234 187h62M0 188h63M234 188h62M0 189h62M234 189h62M0 190h62M234 190h62M0 191h61M233 191h63M0 192h60M233 192h63M0 193h59M232 193h64M0 194h59M232 194h64" />
</svg>