<svg viewBox="0 0 531 229" xmlns="http://www.w3.org/2000/svg">
  <g fill="none" fill-rule="evenodd">
    <path d="M11 154c37.651 1.429 78.706 7.496 123.166 18.201-57.588-4.122-88.52-5.104-92.8-2.946C32.558 167.097 22.436 162.012 11 154z" fill="#BF7474"/>
    <path fill="#FFF" d="M13.161 153.856l4.552 9.266 3.83-8.973zM26.413 154.652l4.06 9.49 4.295-8.76zM40.413 154.652l4.06 9.49 4.295-8.76zM50.413 155.652l4.06 9.49 4.295-8.76zM61.413 157.652l4.06 9.49 4.295-8.76zM72.413 157.652l4.06 9.49 4.295-8.76zM82.413 159.652l4.06 9.49 4.295-8.76z"/>
    <g>
      <path d="M0 136.018c123.936 10.374 194.114 20.374 210.535 30 60.75 35.61 251.21-14.439 249.241-13.558C394.922 181.5 323.83 196.018 246.5 196.018c-85.506 0-160.844-10.597-205.056-26.69l.045-.006.462-.067c4.279-2.158 35.212-1.176 92.8 2.946C90.29 161.496 49.235 155.43 11.584 154c.088.15.176.297.265.444C4.153 148.64 0 142.446 0 136.018z" fill="#E8F1FF"/>
      <path d="M224.956 0c11.717 0 35.068 64.066 47.386 71.884 12.318 7.819 50.486 7.819 86.276 15.188 8.185 1.685 20.257-27.259 28.276-25.188 8.862 2.288 5.91 26.354 13.77 33.938l.241.225 60.213 24.132c7.2 3.25 30.498-16.181 69.893-58.295-15.692 45.423-23.539 72.644-23.539 81.665 0 10.526 3.88 32.39 11.637 65.591-36.382-38.652-56.13-57.556-59.243-56.711l-.09.031c1.316-.59-83.415 21.596-157.867 25.712-1.896 12.883 1.784 26.314 11.038 40.293 15.728 23.756-18.162 6.413-101.67-52.03l-.01.004c-.246-.14-.49-.28-.732-.421-16.421-9.626-86.6-19.626-210.535-30l.043-.817c2.815-27.048 143.645-63.317 160.544-63.317C177.657 71.884 213.238 0 224.956 0z" fill="#A5BEE7"/>
    </g>
    <g transform="translate(76 114.018)">
      <ellipse fill="#000" cx="13.5" cy="8" rx="13.5" ry="8"/>
      <ellipse fill="#FFF" cx="9" cy="5.5" rx="4" ry="2.5"/>
    </g>
  </g>
</svg>
